<?xml version="1.0" encoding="utf-8"?>
<!-- Generator: Adobe Illustrator 16.0.0, SVG Export Plug-In . SVG Version: 6.00 Build 0)  -->
<!DOCTYPE svg PUBLIC "-//W3C//DTD SVG 1.1//EN" "http://www.w3.org/Graphics/SVG/1.1/DTD/svg11.dtd">
<svg version="1.1" id="Layer_1" xmlns="http://www.w3.org/2000/svg" xmlns:xlink="http://www.w3.org/1999/xlink" x="0px" y="0px"
	 width="382.481px" height="135px" viewBox="0 0 382.481 135" enable-background="new 0 0 382.481 135" xml:space="preserve">
<g>
	<path fill-rule="evenodd" clip-rule="evenodd" fill="#EF3929" d="M129.334,49.434c-0.218,0.092-0.448,0.162-0.651,0.279
		c-1.125,0.648-2.223,1.348-3.372,1.953c-0.928,0.488-1.939,0.81-2.994,0.862c-0.545,0.026-1.13-0.038-1.64-0.221
		c-1.059-0.379-1.545-1.315-1.226-2.393c0.192-0.647,0.502-1.289,0.888-1.845c1.57-2.262,3.645-3.974,6.015-5.346
		c1.169-0.678,2.369-1.31,3.495-2.053c0.998-0.657,1.949-1.396,2.854-2.176c0.935-0.806,1.617-1.821,2.15-2.946
		c1.508-3.179,2.967-6.384,4.598-9.5c1.145-2.186,2.439-4.31,3.841-6.343c2.316-3.356,5.467-5.628,9.506-6.465
		c3.07-0.636,6.173-0.825,9.244,0.052c0.625,0.178,1.25,0.463,1.788,0.828c0.943,0.64,1.146,1.55,0.577,2.542
		c-0.299,0.52-0.712,1.002-1.166,1.397c-0.788,0.685-1.646,1.289-2.476,1.925c-2.658,2.039-5.182,4.225-7.417,6.727
		c-0.424,0.475-0.825,0.975-1.182,1.501c-0.33,0.486-0.574,1.025-0.496,1.68c0.689,0.302,1.379,0.162,2.075,0.002
		c2.905-0.667,5.801-1.39,8.722-1.971c3.354-0.667,6.75-1.08,10.173-1.171c1.911-0.051,3.827-0.065,5.734,0.033
		c2.668,0.138,5.252,0.688,7.646,1.957c2.047,1.083,2.798,2.881,2.776,5.07c-0.013,1.247-0.798,2.036-1.895,2.442
		c-0.705,0.261-1.479,0.385-2.234,0.449c-1.847,0.157-3.666-0.136-5.467-0.503c-4.604-0.941-9.249-1.175-13.931-0.911
		c-4.649,0.262-9.229,0.937-13.717,2.193c-1.649,0.461-3.253,1.046-4.776,1.832c-0.564,0.292-1.114,0.622-1.634,0.986
		c-0.636,0.446-1.125,1.029-1.429,1.759c-2.866,6.898-5.669,13.82-7.889,20.961c-1.113,3.58-2.104,7.19-2.758,10.888
		c-0.433,2.444-0.664,4.904-0.517,7.388c0.081,1.357,0.332,2.687,0.998,3.895c0.904,1.64,2.304,2.486,4.176,2.485
		c0.45,0,0.912-0.114,1.345-0.249c5.001-1.566,8.538-4.835,10.923-9.436c0.709-1.368,1.134-2.834,1.522-4.316
		c0.808-3.084,1.672-6.15,2.933-9.087c0.939-2.188,2.033-4.287,3.631-6.083c0.909-1.021,1.953-1.87,3.206-2.436
		c1.001-0.451,2.036-0.614,3.132-0.403c1.016,0.195,1.967,0.541,2.841,1.082c1.399,0.863,1.887,2.185,1.414,3.753
		c-0.316,1.045-0.937,1.916-1.583,2.774c-1.134,1.508-2.304,2.993-3.37,4.548c-1.824,2.666-3.302,5.511-4.161,8.646
		c-0.53,1.931-0.827,3.891-0.693,5.899c0.07,1.053,0.292,2.075,0.771,3.017c0.191,0.375,0.471,0.736,0.793,1.004
		c0.451,0.375,0.997,0.469,1.583,0.251c0.755-0.281,1.45-0.675,1.993-1.255c4.041-4.316,8.407-8.354,11.735-13.295
		c0.953-1.415,1.92-2.851,2.628-4.392c2.034-4.433,5.417-7.463,9.631-9.693c2.038-1.08,4.167-1.899,6.446-2.333
		c2.949-0.561,5.681,0.001,8.237,1.503c3.085,1.813,5.172,4.487,6.553,7.75c0.107,0.254,0.215,0.508,0.341,0.802
		c0.281-0.095,0.522-0.159,0.751-0.253c4.776-1.932,8.98-4.706,12.468-8.518c0.63-0.688,1.362-1.152,2.261-1.335
		c0.897-0.18,1.794-0.416,2.724-0.258c1.156,0.197,1.737,0.823,1.651,1.996c-0.06,0.8-0.284,1.599-0.514,2.376
		c-0.687,2.319-1.453,4.616-2.111,6.944c-0.443,1.572-0.64,3.195-0.717,5.039c0.272-0.301,0.443-0.465,0.587-0.649
		c1.044-1.354,2.072-2.719,3.125-4.067c2.465-3.156,5.246-5.982,8.65-8.145c2.35-1.492,4.876-2.549,7.612-3.079
		c1.237-0.239,2.471-0.281,3.716,0.021c1.821,0.439,2.84,1.621,3.244,3.382c0.313,1.358,0.297,2.746,0.079,4.11
		c-0.415,2.592-0.91,5.17-1.358,7.756c-0.653,3.751-1.148,7.519-0.985,11.335c0.047,1.113,0.249,2.226,0.453,3.325
		c0.14,0.756,0.51,1.437,1.001,2.042c0.804,0.987,1.825,1.229,3.021,0.905c0.817-0.223,1.449-0.74,2.039-1.308
		c1.221-1.171,2.031-2.613,2.653-4.164c0.729-1.821,1.371-3.681,2.15-5.48c2.933-6.773,7.315-12.415,13.341-16.714
		c3.993-2.851,8.466-4.565,13.319-5.26c2.872-0.411,5.591,0.104,8.102,1.573c1.247,0.73,1.871,1.849,1.835,3.303
		c-0.036,1.453-0.836,2.343-2.28,2.479c-1.32,0.124-2.647,0.158-3.969,0.274c-1.452,0.127-2.873,0.423-4.248,0.922
		c-1.135,0.414-2.206,0.958-3.116,1.756c-3.835,3.367-7.247,7.105-9.979,11.438c-1.187,1.882-2.205,3.851-3.044,5.909
		c-1.048,2.577-1.106,5.217-0.362,7.874c0.455,1.629,1.418,1.947,2.799,0.962c0.41-0.293,0.801-0.646,1.113-1.041
		c1.345-1.699,2.72-3.381,3.968-5.15c2.793-3.961,5.438-8.023,7.85-12.231c0.432-0.75,0.772-1.551,1.18-2.317
		c0.321-0.606,0.64-1.221,1.028-1.785c1.024-1.48,2.482-1.961,4.216-1.698c0.375,0.056,0.747,0.171,1.103,0.305
		c1.452,0.542,1.997,1.402,1.848,2.948c-0.063,0.659-0.166,1.317-0.296,1.968c-0.462,2.331-0.752,4.684-0.822,7.058
		c-0.048,1.607,0.009,3.215,0.384,4.792c0.04,0.174,0.092,0.345,0.15,0.513c0.521,1.457,1.424,1.987,2.964,1.76
		c1.408-0.207,2.629-0.839,3.678-1.759c1.072-0.94,2.107-1.933,3.084-2.971c1.981-2.103,3.715-4.409,5.277-6.838
		c0.263-0.41,0.39-0.936,0.476-1.426c0.378-2.187,0.691-4.382,1.077-6.564c0.924-5.222,1.896-10.44,3.38-15.532
		c0.911-3.126,2.09-6.178,3.232-9.232c2.16-5.782,4.513-11.484,7.332-16.984c1.443-2.821,3.003-5.575,5.146-7.938
		c0.907-0.999,1.866-1.962,2.895-2.833c2.309-1.957,5.021-2.965,8.031-3.222c1.711-0.146,3.414-0.179,5.104,0.178
		c0.906,0.192,1.757,0.525,2.508,1.082c0.985,0.729,1.297,1.646,0.954,2.823c-0.208,0.711-0.641,1.253-1.216,1.717
		c-5.629,4.538-10.375,9.875-14.355,15.9c-2.768,4.184-5.06,8.614-6.964,13.252c-2.421,5.899-4.688,11.853-6.323,18.025
		c-1.496,5.638-2.47,11.356-2.6,17.201c-0.023,1,0.008,1.996,0.378,2.938c0.176,0.447,0.398,0.885,0.659,1.288
		c0.712,1.091,1.765,1.461,2.992,1.177c0.708-0.164,1.398-0.475,2.046-0.817c1.433-0.76,2.679-1.793,3.771-2.974
		c2.08-2.244,4.117-4.53,6.134-6.833c1.008-1.15,1.922-2.383,2.896-3.563c0.339-0.411,0.696-0.821,1.108-1.156
		c0.935-0.763,1.892-0.758,2.879-0.055c1.361,0.97,1.959,2.979,1.318,4.593c-0.195,0.491-0.449,0.993-0.798,1.382
		c-3.806,4.263-7.331,8.774-11.436,12.768c-2.15,2.093-4.552,3.867-7.025,5.536c-2.587,1.745-4.682,1.805-7.533-0.306
		c-2.029-1.502-3.135-3.649-3.888-6.001c-0.209-0.654-0.384-1.321-0.612-1.971c-0.16-0.454-0.354-0.902-0.589-1.322
		c-0.271-0.488-0.672-0.609-1.161-0.33c-0.301,0.171-0.571,0.427-0.798,0.694c-1.173,1.381-2.313,2.789-3.492,4.163
		c-1.516,1.77-3.18,3.368-5.108,4.702c-1.954,1.353-4.011,1.591-6.265,1.021c-1.847-0.468-3.297-1.452-4.381-2.998
		c-1.104-1.575-1.951-3.282-2.563-5.108c-0.193-0.579-0.378-1.165-0.62-1.724c-0.176-0.41-0.438-0.783-0.735-1.302
		c-0.418,0.512-0.797,0.89-1.073,1.331c-0.459,0.733-0.839,1.516-1.273,2.266c-1.685,2.905-3.927,5.265-6.871,6.919
		c-1.813,1.018-3.756,1.362-5.827,1.195c-1.951-0.158-3.826-0.548-5.607-1.385c-1.067-0.501-1.938-1.202-2.596-2.188
		c-0.338-0.508-0.71-1.001-1.123-1.45c-0.621-0.675-1.433-0.667-2.082-0.008c-0.357,0.362-0.668,0.77-1.018,1.143
		c-1.178,1.261-2.519,2.304-4.092,3.038c-3.91,1.821-7.171,0.563-9.501-2.407c-0.483-0.617-0.877-1.319-1.216-2.029
		c-1.808-3.807-2.826-7.791-2.768-12.039c0.058-4.081,0.023-8.164,0.026-12.248c0.001-0.254,0.012-0.515-0.038-0.763
		c-0.092-0.449-0.337-0.579-0.786-0.431c-0.791,0.262-1.483,0.708-2.04,1.313c-0.761,0.823-1.508,1.666-2.188,2.555
		c-4.251,5.569-7.602,11.654-10.266,18.122c-0.852,2.073-1.607,4.187-2.382,6.291c-0.535,1.457-1.468,2.206-3.013,2.262
		c-0.553,0.019-1.116-0.058-1.667-0.144c-0.912-0.142-1.46-0.743-1.656-1.597c-0.176-0.764-0.262-1.558-0.304-2.344
		c-0.128-2.402,0.124-4.791,0.345-7.18c0.174-1.878,0.364-3.755,0.55-5.633c0.365-3.654,0.805-7.297,1.468-10.912
		c0.05-0.271,0.079-0.547,0.136-0.959c-0.342,0.142-0.587,0.235-0.825,0.344c-2.364,1.081-4.723,2.174-7.094,3.241
		c-0.602,0.271-1.235,0.483-1.866,0.679c-0.436,0.135-0.635,0.352-0.726,0.83c-0.635,3.345-1.641,6.571-3.145,9.638
		c-3.267,6.664-8.503,11.108-15.416,13.628c-2.915,1.063-5.886,1.182-8.843,0.118c-2.407-0.865-4.261-2.468-5.801-4.466
		c-1.219-1.585-2.169-3.332-3.062-5.113c-0.103-0.203-0.212-0.404-0.37-0.704c-0.315,0.336-0.622,0.619-0.878,0.942
		c-1.239,1.558-2.518,3.082-3.962,4.459c-1.745,1.664-3.619,3.145-5.808,4.193c-1.329,0.636-2.712,1.028-4.203,0.983
		c-1.202-0.036-2.316-0.347-3.322-1.009c-2.409-1.588-3.792-3.866-4.414-6.641c-0.133-0.596-0.191-1.209-0.288-1.813
		c-0.125-0.783-0.544-1.021-1.224-0.615c-0.385,0.229-0.704,0.579-1.028,0.9c-1.558,1.544-3.057,3.148-4.672,4.63
		c-1.719,1.577-3.685,2.818-5.843,3.731c-1.262,0.533-2.577,0.808-3.951,0.739c-1.918-0.095-3.458-0.955-4.726-2.363
		c-1.092-1.211-1.879-2.606-2.449-4.119c-0.413-1.096-0.73-2.227-1.104-3.337c-0.146-0.433-0.284-0.879-0.508-1.271
		c-0.231-0.408-0.637-0.608-1.068-0.157c-0.491,0.516-0.975,1.041-1.425,1.593c-1.847,2.261-3.866,4.347-6.191,6.121
		c-1.303,0.994-2.69,1.866-4.246,2.398c-0.836,0.284-1.722,0.489-2.601,0.564c-1.935,0.166-3.599-0.517-5.016-1.838
		c-1.215-1.132-2.112-2.486-2.799-3.98c-0.403-0.878-0.744-1.788-1.088-2.692c-0.283-0.744-0.646-1.433-1.208-2.101
		c-0.179,0.192-0.348,0.337-0.471,0.513c-0.72,1.021-1.421,2.056-2.143,3.076c-1.375,1.944-2.876,3.785-4.748,5.272
		c-0.813,0.646-1.711,1.2-2.615,1.717c-1.496,0.855-3.141,1.106-4.813,0.779c-1.847-0.361-3.693-0.778-5.493-1.324
		c-3.741-1.136-5.665-3.805-6.081-7.62c-0.56-5.138,0.393-9.928,3.2-14.338c3.079-4.837,6.656-9.225,11.155-12.812
		c3.268-2.604,6.869-4.581,10.954-5.589c3.717-0.919,7.29-0.505,10.692,1.256c1.441,0.747,2.083,1.985,2,3.582
		c-0.057,1.084-0.549,1.939-1.633,2.258c-0.799,0.236-1.637,0.376-2.467,0.46c-0.809,0.081-1.637-0.016-2.447,0.066
		c-0.779,0.078-1.594,0.166-2.311,0.454c-5.644,2.265-10.291,5.789-13.558,10.988c-1.528,2.433-2.553,5.103-3.484,7.805
		c-0.573,1.665-1.05,3.357-1.283,5.109c-0.125,0.945-0.145,1.888,0.081,2.813c0.087,0.36,0.258,0.725,0.478,1.022
		c0.386,0.52,0.878,0.623,1.488,0.396c0.854-0.315,1.556-0.864,2.213-1.477c3.632-3.39,6.614-7.28,8.975-11.647
		c0.97-1.796,1.9-3.613,2.911-5.383c0.669-1.173,1.414-2.307,2.2-3.403c0.441-0.614,0.998-1.16,1.566-1.666
		c1.895-1.688,4.298-0.358,4.959,1.232c0.341,0.82,0.484,1.682,0.37,2.548c-0.136,1.031-0.321,2.065-0.609,3.064
		c-0.864,2.989-0.845,5.989-0.21,9.003c0.114,0.542,0.336,1.071,0.573,1.576c0.605,1.283,1.93,1.805,3.27,1.319
		c0.167-0.062,0.333-0.131,0.487-0.218c4.851-2.746,8.754-6.4,11.076-11.568c0.936-2.085,1.483-4.277,1.86-6.523
		c1.068-6.363,2.453-12.66,4.053-18.91c0.056-0.215,0.068-0.441,0.102-0.663c0.021-0.011,0.044-0.02,0.061-0.034
		c0.004-0.004-0.01-0.029-0.016-0.045C129.354,49.373,129.344,49.403,129.334,49.434z M183.979,83.791
		c0.033,2.321,0.603,4.4,1.905,6.258c0.198,0.283,0.416,0.491,0.78,0.549c2.311,0.361,4.403-0.071,6.211-1.634
		c1.711-1.479,3.139-3.197,4.384-5.076c1.65-2.491,2.976-5.162,4.331-7.817c0.116-0.226,0.208-0.466,0.288-0.707
		c0.269-0.816,0.071-1.292-0.719-1.667c-0.319-0.152-0.664-0.258-1.004-0.362c-0.585-0.178-1.177-0.331-1.761-0.507
		c-2.649-0.803-5.214-1.761-7.264-3.742c-0.554-0.533-1.48-0.525-2.005,0.339c-1.271,2.095-2.464,4.225-3.375,6.504
		C184.73,78.477,184.079,81.108,183.979,83.791z M203.659,66.217c0.521-1.997-0.917-4.286-2.834-4.923
		c-1.244-0.414-2.362-0.089-3.381,0.635c-0.549,0.39-0.554,0.811-0.06,1.262c1.402,1.28,2.988,2.277,4.752,2.979
		C202.607,66.358,203.107,66.487,203.659,66.217z"/>
	<path fill-rule="evenodd" clip-rule="evenodd" fill="#EF3929" d="M32.879,46.738c-0.511,1.918-1.029,3.835-1.532,5.756
		c-2.748,10.505-5.244,21.068-7.462,31.695c-0.797,3.817-1.496,7.654-2.131,11.501c-0.307,1.855-0.344,3.756-0.542,5.631
		c-0.083,0.78-0.198,1.57-0.423,2.317c-0.278,0.92-0.934,1.492-1.932,1.621c-1.819,0.232-3.624,0.211-5.362-0.423
		c-0.734-0.268-1.447-0.64-2.107-1.062c-1.329-0.852-1.982-2.085-2.128-3.689c-0.263-2.88,0.075-5.706,0.56-8.524
		c1.672-9.726,4.511-19.138,7.705-28.452c3.276-9.557,6.956-18.951,11.338-28.06c0.52-1.081,1.062-2.149,1.58-3.229
		c0.207-0.432,0.504-0.762,0.925-0.984c1.787-0.946,3.669-1.529,5.712-1.455c1.092,0.039,2.118,0.311,3.008,0.978
		c0.531,0.399,0.826,0.894,0.918,1.593c0.564,4.322,1.183,8.637,1.77,12.957c0.644,4.749,1.396,9.48,2.332,14.181
		c1.696,8.531,4.265,16.788,7.821,24.731c0.062,0.138,0.128,0.271,0.232,0.492c0.083-0.216,0.153-0.343,0.18-0.477
		c3.608-18.229,9.333-35.786,16.728-52.814c0.649-1.496,1.357-2.967,2.042-4.448c1.56-3.364,3.701-6.336,6.167-9.083
		c1.444-1.609,3.115-2.939,5.091-3.854c1.124-0.52,2.304-0.904,3.535-0.895c2.088,0.014,4.18,0.091,6.259,0.264
		c0.733,0.061,1.484,0.39,2.143,0.751c1.699,0.935,1.933,3.006,0.544,4.375c-0.271,0.268-0.581,0.498-0.875,0.742
		c-4.641,3.846-8.748,8.193-12.216,13.13c-2,2.849-3.544,5.958-5.041,9.087c-3.121,6.525-5.509,13.328-7.576,20.247
		c-2.433,8.139-4.388,16.393-5.855,24.76c-0.602,3.439-1.112,6.897-2.033,10.27c-0.428,1.569-1.006,3.099-1.525,4.644
		c-0.08,0.239-0.208,0.465-0.32,0.693c-1.001,2.063-2.255,2.818-4.971,2.285c-1.306-0.257-2.413-0.943-3.399-1.825
		c-2.302-2.06-3.971-4.566-5.231-7.369c-3.669-8.155-6.548-16.588-8.883-25.213c-1.987-7.336-3.624-14.749-4.786-22.263
		c-0.031-0.198-0.093-0.393-0.14-0.59C32.958,46.735,32.918,46.736,32.879,46.738z"/>
	<path fill-rule="evenodd" clip-rule="evenodd" fill="#EF3929" d="M173.012,109.641c0.388,0,0.714-0.001,1.041,0
		c1.581,0.005,3.163,0.003,4.744,0.019c0.744,0.006,1.472,0.114,2.153,0.448c2.111,1.037,2.452,3.569,0.685,5.128
		c-0.153,0.133-0.317,0.253-0.554,0.442c0.274,0.144,0.507,0.268,0.742,0.387c1.088,0.551,1.618,1.455,1.617,2.655
		c-0.003,1.24-0.506,2.218-1.63,2.826c-0.662,0.356-1.372,0.585-2.116,0.601c-2.142,0.041-4.285,0.041-6.427,0.052
		c-0.073,0-0.146-0.037-0.253-0.068C173.012,118.007,173.012,113.884,173.012,109.641z M175.167,116.8c0,1.202,0,2.285,0,3.349
		c0.089,0.04,0.134,0.077,0.18,0.077c0.867,0.022,1.735,0.061,2.601,0.049c0.61-0.008,1.222-0.068,1.83-0.14
		c0.625-0.074,1.098-0.378,1.337-0.993c0.385-0.982-0.09-1.89-1.163-2.157C178.39,116.598,176.809,116.877,175.167,116.8z
		 M175.126,115.02c1.449-0.076,2.773-0.095,4.084-0.235c0.859-0.092,1.295-0.699,1.306-1.53c0.013-0.845-0.401-1.339-1.289-1.53
		c-1.336-0.288-2.68-0.069-4.067-0.133c-0.014,0.284-0.032,0.481-0.033,0.679C175.124,113.131,175.126,113.992,175.126,115.02z"/>
	<path fill-rule="evenodd" clip-rule="evenodd" fill="#EF3929" d="M224.566,115.923c0,3.716-2.882,6.532-6.664,6.513
		c-3.663-0.021-6.496-2.879-6.482-6.54c0.014-3.646,2.922-6.471,6.65-6.457C221.793,109.451,224.566,112.221,224.566,115.923z
		 M222.281,115.896c-0.002-3.328-3.394-5.472-6.274-3.977c-1.721,0.894-2.482,3.107-2.213,4.745
		c0.441,2.691,3.038,4.354,5.617,3.509C221.109,119.617,222.283,117.868,222.281,115.896z"/>
	<path fill-rule="evenodd" clip-rule="evenodd" fill="#EF3929" d="M300.866,109.438c3.757,0.001,6.547,2.787,6.534,6.524
		c-0.012,3.675-2.881,6.477-6.627,6.473c-3.677-0.005-6.511-2.833-6.517-6.501C294.252,112.273,297.14,109.438,300.866,109.438z
		 M305.203,115.905c-0.152-0.613-0.231-1.256-0.471-1.832c-0.651-1.578-1.905-2.45-3.573-2.606c-1.692-0.159-3.03,0.544-3.92,2.009
		c-0.666,1.096-0.808,2.287-0.559,3.535c0.412,2.076,2.548,3.622,4.637,3.352C303.574,120.068,305.102,118.281,305.203,115.905z"/>
	<path fill-rule="evenodd" clip-rule="evenodd" fill="#EF3929" d="M197.365,109.436c3.726-0.004,6.538,2.765,6.538,6.438
		c0,3.725-2.819,6.555-6.534,6.563c-3.741,0.007-6.601-2.806-6.606-6.494C190.761,112.281,193.645,109.438,197.365,109.436z
		 M201.665,115.96c-0.079-0.477-0.106-0.968-0.247-1.424c-0.518-1.692-1.703-2.713-3.411-3.026c-1.64-0.302-3.019,0.274-4.024,1.617
		c-0.84,1.121-1.095,2.41-0.807,3.768c0.35,1.645,1.338,2.813,2.957,3.301c1.542,0.466,2.987,0.183,4.159-0.995
		C201.173,118.313,201.625,117.229,201.665,115.96z"/>
	<path fill-rule="evenodd" clip-rule="evenodd" fill="#EF3929" d="M322.805,117.501c1.102,1.545,2.176,3.056,3.322,4.664
		c-0.897,0.088-1.698,0.047-2.493-0.016c-0.15-0.013-0.307-0.244-0.419-0.404c-0.812-1.142-1.625-2.283-2.413-3.443
		c-0.223-0.328-0.457-0.488-0.868-0.469c-0.729,0.035-1.462,0.01-2.252,0.01c0,1.483,0,2.877,0,4.314c-0.737,0-1.416,0-2.146,0
		c0-4.149,0-8.287,0-12.464c0.215-0.019,0.412-0.05,0.609-0.05c1.657-0.004,3.314-0.012,4.972,0.002
		c0.898,0.008,1.776,0.149,2.592,0.559c1.37,0.69,2.007,1.849,2.042,3.335c0.035,1.519-0.562,2.725-1.94,3.469
		C323.502,117.175,323.18,117.318,322.805,117.501z M317.711,115.881c1.135,0,2.18,0.025,3.223-0.012
		c0.451-0.017,0.912-0.118,1.341-0.264c0.838-0.286,1.255-1.013,1.219-1.991c-0.032-0.899-0.466-1.492-1.324-1.747
		c-1.472-0.441-2.966-0.188-4.458-0.204C317.711,113.099,317.711,114.441,317.711,115.881z"/>
	<path fill-rule="evenodd" clip-rule="evenodd" fill="#EF3929" d="M336.064,114.913c2.156,0,4.188,0,6.259,0
		c0,0.652,0,1.231,0,1.921c-1.019,0.035-2.053,0.012-3.085,0.016c-1.018,0.004-2.034,0-3.03,0c-0.183,0.591-0.212,2.488-0.055,3.368
		c2.321,0,4.657,0,7.042,0c0,0.673,0,1.27,0,1.931c-3.071,0-6.144,0-9.27,0c0-4.139,0-8.278,0-12.465c3.069,0,6.118,0,9.218,0
		c0,0.623,0,1.218,0,1.885c-2.331,0-4.641,0-7.063,0C336.033,112.687,336.063,113.738,336.064,114.913z"/>
	<path fill-rule="evenodd" clip-rule="evenodd" fill="#EF3929" d="M243.791,122.207c-0.907,0-1.666,0.029-2.42-0.02
		c-0.203-0.015-0.436-0.231-0.577-0.415c-1.169-1.514-2.32-3.041-3.479-4.563c-0.149-0.196-0.313-0.383-0.461-0.564
		c-0.602,0.573-1.203,1.084-1.722,1.668c-0.195,0.22-0.262,0.604-0.28,0.919c-0.04,0.687-0.01,1.376-0.01,2.063
		c0,0.277,0,0.556,0,0.871c-0.739,0-1.418,0-2.14,0c0-4.164,0-8.305,0-12.489c0.712,0,1.385,0,2.105,0c0,2.047,0,4.054,0,6.107
		c0.367-0.027,0.5-0.299,0.674-0.481c1.62-1.699,3.243-3.393,4.834-5.116c0.382-0.415,0.768-0.604,1.328-0.558
		c0.553,0.045,1.112,0.01,1.643,0.01c0.039,0.061,0.06,0.079,0.066,0.103c0.006,0.022,0.008,0.058-0.005,0.07
		c-1.651,1.732-3.304,3.463-5.009,5.25C240.127,117.406,241.912,119.745,243.791,122.207z"/>
	<path fill-rule="evenodd" clip-rule="evenodd" fill="#EF3929" d="M261.009,120.397c0.462-0.55,0.853-1.016,1.284-1.527
		c0.229,0.149,0.435,0.279,0.637,0.419c0.807,0.558,1.684,0.952,2.657,1.116c0.671,0.112,1.318,0.032,1.955-0.193
		c0.625-0.222,0.938-0.671,0.982-1.32c0.045-0.638-0.232-1.105-0.819-1.326c-0.763-0.285-1.546-0.51-2.318-0.768
		c-0.674-0.224-1.37-0.405-2.017-0.695c-1.235-0.556-1.885-1.563-1.861-2.91c0.024-1.395,0.604-2.515,1.908-3.162
		c1.316-0.655,2.696-0.72,4.101-0.377c1.021,0.249,1.973,0.664,2.844,1.379c-0.388,0.555-0.762,1.086-1.113,1.586
		c-0.707-0.338-1.336-0.681-1.996-0.938c-0.801-0.313-1.635-0.377-2.471-0.095c-0.615,0.208-0.992,0.608-1.045,1.271
		c-0.051,0.651,0.188,1.089,0.871,1.367c0.706,0.287,1.447,0.484,2.17,0.728c0.7,0.233,1.418,0.425,2.09,0.722
		c1.204,0.535,1.859,1.5,1.887,2.821c0.028,1.368-0.496,2.479-1.71,3.207c-0.719,0.43-1.505,0.62-2.33,0.67
		C264.573,122.499,262.72,121.798,261.009,120.397z"/>
	<path fill-rule="evenodd" clip-rule="evenodd" fill="#EF3929" d="M283.815,122.16c-0.786,0-1.489,0-2.25,0c0-3.478,0-6.911,0-10.44
		c-1.337,0-2.621,0-3.947,0c0-0.721,0-1.345,0-2.024c3.359,0,6.708,0,10.163,0c0,0.328,0,0.65,0,0.972c0,0.304,0,0.607,0,0.996
		c-1.316,0.096-2.604-0.004-3.966,0.052C283.815,115.222,283.815,118.677,283.815,122.16z"/>
	<path fill-rule="evenodd" clip-rule="evenodd" fill="#EF3929" d="M366.844,13.571c2.312,0.05,4.271,0.911,5.817,2.628
		c2.587,2.874,2.292,7.343-0.628,9.964c-2.76,2.478-7.106,2.605-10.008,0.293c-4.215-3.358-3.469-9.727,1.419-12.1
		C364.53,13.831,365.634,13.578,366.844,13.571z M373.56,20.95c-0.005-1.062-0.239-2.006-0.734-2.938
		c-1.387-2.609-4.392-3.948-7.486-3.335c-2.512,0.498-4.667,2.607-5.116,5.006c-0.485,2.588,0.587,5.108,2.79,6.557
		c2.347,1.544,5.572,1.503,7.849-0.149C372.598,24.831,373.523,23.114,373.56,20.95z"/>
	<path fill-rule="evenodd" clip-rule="evenodd" fill="#FFFFFF" d="M129.334,49.434c0.01-0.03,0.019-0.061,0.029-0.09
		c0.006,0.016,0.02,0.041,0.016,0.045c-0.017,0.015-0.04,0.023-0.061,0.034L129.334,49.434z"/>
	<path fill-rule="evenodd" clip-rule="evenodd" fill="#EF3929" d="M367.947,21.547c1.115,1.094,1.9,2.292,2.635,3.668
		c-0.318,0-0.515-0.016-0.708,0.003c-0.403,0.04-0.661-0.112-0.859-0.477c-0.304-0.559-0.689-1.073-0.998-1.629
		c-0.73-1.315-1.846-1.737-3.362-1.452c0,1.135,0,2.292,0,3.504c-0.376,0-0.668,0-1.054,0c-0.055-2.618-0.011-5.257-0.026-7.895
		c0.097-0.049,0.162-0.111,0.227-0.11c1.502,0.032,3.007,0.028,4.503,0.124c0.918,0.058,1.523,0.757,1.68,1.718
		c0.151,0.926-0.26,1.736-1.1,2.145C368.613,21.277,368.33,21.384,367.947,21.547z M364.658,20.671
		c1.102,0.145,2.139,0.089,3.171-0.045c0.691-0.091,1.081-0.557,1.102-1.243c0.02-0.659-0.297-1.064-0.994-1.229
		c-1.076-0.253-2.159-0.102-3.278-0.119C364.658,18.943,364.658,19.772,364.658,20.671z"/>
</g>
</svg>
